<?xml version="1.0" encoding="UTF-8" standalone="no"?>
<!DOCTYPE svg PUBLIC "-//W3C//DTD SVG 1.1//EN" "http://www.w3.org/Graphics/SVG/1.1/DTD/svg11.dtd">
<svg width="100%" height="100%" viewBox="0 0 2103 2344" version="1.1" xmlns="http://www.w3.org/2000/svg" xmlns:xlink="http://www.w3.org/1999/xlink" xml:space="preserve" xmlns:serif="http://www.serif.com/" style="fill-rule:evenodd;clip-rule:evenodd;stroke-linejoin:round;stroke-miterlimit:2;">
    <g transform="matrix(1,0,0,1,-26.159585,-13.064655)">
        <g transform="matrix(-63.327799,0,0,63.327799,111667.637637,-71961.679326)">
            <path d="M1762.907,1170.036C1762.885,1169.625 1762.806,1169.203 1762.67,1168.769C1762.657,1168.726 1762.642,1168.681 1762.627,1168.635C1762.444,1168.005 1762.174,1167.26 1761.816,1166.401L1760.777,1163.835L1752.709,1143.354C1752.449,1142.687 1752.135,1141.885 1751.769,1140.949C1751.403,1140.014 1751.012,1139.236 1750.597,1138.618C1750.182,1137.999 1749.637,1137.499 1748.962,1137.116C1748.286,1136.734 1747.452,1136.543 1746.459,1136.543L1746.166,1136.543C1745.173,1136.543 1744.339,1136.734 1743.664,1137.116C1742.988,1137.499 1742.443,1137.999 1742.028,1138.618C1741.613,1139.236 1741.222,1140.014 1740.856,1140.949C1740.49,1141.885 1740.177,1142.687 1739.916,1143.354L1731.848,1163.835L1730.81,1166.401C1730.452,1167.26 1730.181,1168.005 1729.998,1168.635C1729.983,1168.681 1729.969,1168.726 1729.955,1168.769C1729.82,1169.203 1729.741,1169.625 1729.718,1170.036C1729.713,1170.105 1729.711,1170.171 1729.711,1170.234C1729.711,1170.241 1729.711,1170.249 1729.711,1170.256C1729.711,1170.265 1729.711,1170.274 1729.711,1170.283C1729.711,1171.129 1730.061,1171.886 1730.761,1172.553C1731.461,1173.221 1732.266,1173.554 1733.178,1173.554C1733.191,1173.554 1733.204,1173.554 1733.217,1173.554C1733.228,1173.554 1733.24,1173.554 1733.251,1173.554C1733.743,1173.554 1734.174,1173.479 1734.544,1173.327C1734.702,1173.265 1734.847,1173.189 1734.98,1173.101C1735.273,1172.918 1735.527,1172.69 1735.741,1172.419C1736.018,1172.069 1736.315,1171.532 1736.632,1170.808C1736.95,1170.083 1737.222,1169.445 1737.45,1168.891L1739.159,1164.399L1741.112,1158.955C1741.112,1158.955 1744.286,1150.268 1745.675,1146.466C1745.773,1146.198 1746.027,1146.019 1746.313,1146.019C1746.598,1146.019 1746.853,1146.198 1746.951,1146.466C1748.34,1150.268 1751.513,1158.955 1751.513,1158.955L1753.466,1164.399L1755.175,1168.891C1755.403,1169.445 1755.675,1170.083 1755.993,1170.808C1756.31,1171.532 1756.607,1172.069 1756.884,1172.419C1757.098,1172.69 1757.352,1172.918 1757.645,1173.101C1757.778,1173.189 1757.924,1173.265 1758.081,1173.327C1758.452,1173.479 1758.883,1173.554 1759.374,1173.554C1759.386,1173.554 1759.397,1173.554 1759.408,1173.554C1759.421,1173.554 1759.434,1173.554 1759.447,1173.554C1760.359,1173.554 1761.165,1173.221 1761.864,1172.553C1762.564,1171.886 1762.914,1171.129 1762.914,1170.283C1762.914,1170.274 1762.914,1170.265 1762.914,1170.256C1762.914,1170.249 1762.914,1170.241 1762.914,1170.234C1762.914,1170.171 1762.912,1170.105 1762.907,1170.036Z" style="fill:rgb(0,171,0);"/>
        </g>
        <g transform="matrix(2.267211,0,0,2.267211,-1688.399886,-2014.818988)">
            <circle cx="1219.957" cy="1601.732" r="106.157" style="fill:rgb(255,0,66);"/>
        </g>
    </g>
</svg>
